<svg xmlns="http://www.w3.org/2000/svg" viewBox="0 0 258.88 183.05"><defs><style>.cls-1,.cls-2{fill:#6f6c6d;}.cls-2{isolation:isolate;}</style></defs><title>Asset 1</title><g id="Layer_2" data-name="Layer 2"><g id="Layer_1-2" data-name="Layer 1"><path class="cls-1" d="M200,109.81c-2.13-2.35-52.37-57.46-70.56-57.46S61,107.46,58.89,109.81h0c-.21.23-5.11,5.8-5.11,12.3,0,5.06.34,10.14.34,10.19,0,.23.13,2.38,1.33,3a1.39,1.39,0,0,0,.62.14,2.61,2.61,0,0,0,1.48-.59c.54-.48,51.72-45.4,71.89-45.4s71.36,44.93,71.87,45.38a2.66,2.66,0,0,0,1.51.61,1.42,1.42,0,0,0,.62-.14c1.2-.58,1.32-2.73,1.33-3,0,0,.34-5.13.34-10.18C205.11,115.61,200.21,110,200,109.81Zm.54,18.47C187.33,117,148.08,85,129.44,85s-57.87,32-71.09,43.28c-.08-2.66-.15-4.28-.15-6.65a11.36,11.36,0,0,1,3.16-7.83A233.19,233.19,0,0,1,121,75c9-3.76,8.46-3.06,8.45-18.16a5,5,0,0,1,.65,0c12.62,1.14,46.54,33.86,66.62,56,0,0,4,4.55,4,9.32C200.68,124.33,200.62,126.54,200.54,128.27Z"/><path class="cls-2" d="M168.24,158.52c-6.36-.14-12.83,0-12.88,0-7.77,0-14.1,5.39-14.1,12s6.32,12.19,14.1,12.19c.05,0,6.52.13,12.88,0,7.79,0,14.12-5.47,14.12-12.19C182.36,164,176.16,158.7,168.24,158.52Zm-4.36,20.88h0c-.51,0-2.3.06-4.06,0-4.47,0-9.3-3.38-9.3-8.83s4.73-8.64,9.28-8.64c.06,0,2.28-.1,4.1,0,4.57,0,9.31,3.23,9.31,8.64S168.35,179.4,163.87,179.4Z"/><path class="cls-2" d="M251,182.41h7.93c0-.31,0-11.53,0-11.53,0-6.74-6-12-13.74-12h-20c-.33,0-1.09.08-1.09.88v21.78a.84.84,0,0,0,.84.89h8.38c0-.31,0-18.22,0-18.22a1.17,1.17,0,0,1,1.2-1.22h9.24c2.55,0,6.33,2.33,6.33,7.32V181.5A.93.93,0,0,0,251,182.41Z"/><path class="cls-2" d="M83.69,163.53H96.06v-3.75a.89.89,0,0,0-.89-.92H60.7a.9.9,0,0,0-.9.91s0,3.47,0,3.76H68a5.22,5.22,0,0,1,5.17,5.12v12.86a.93.93,0,0,0,.91.9h8.36V164.74A1.21,1.21,0,0,1,83.69,163.53Z"/><path class="cls-2" d="M45.58,181.52a.93.93,0,0,0,.91.9H47l-.06.06c.24-.06,1-.06,3.85-.06h4.09V159.75a.91.91,0,0,0-.89-.9H46.49a.91.91,0,0,0-.91.9Z"/><path class="cls-2" d="M128.23,182.42h9.2c-.14-5.66-6-8-6.72-8.26l-.12,0v-.32l.12,0c3.94-.88,6.69-3.89,6.69-7.33,0-3.65-3.57-7.59-9.34-7.59H105.82a4.76,4.76,0,0,0-4.81,4.81v17.85a.86.86,0,0,0,.89.89h8.35c0-.3,0-8.35,0-8.35h7.88C125.13,174.06,128,179.12,128.23,182.42Zm-18-12.53v-4.7a2.11,2.11,0,0,1,2.22-2.18h12.3a3.44,3.44,0,1,1,0,6.89Z"/><path class="cls-2" d="M31.53,166.76h9c-1.95-4.92-7.35-8.31-13.56-8.43l-2.77-.06c-4.34-.09-6.31-.13-10.11.06-4.44.22-7.23,1.24-10,3.62A11.45,11.45,0,0,0,0,170.61c0,6.74,6,12,13.94,12.3,5.45.19,6,.2,13.17,0,6.62-.2,11.37-3.2,13.41-8.42h-9a.84.84,0,0,0-.77.45,9.37,9.37,0,0,1-8.14,4.55h0c-1.85.08-4.08,0-4.08,0-4.57,0-9.31-3.3-9.31-8.82v-.05c0-5.49,4.75-8.77,9.33-8.77.52,0,2.37-.08,4.06,0a9.57,9.57,0,0,1,8.15,4.51A.88.88,0,0,0,31.53,166.76Z"/><path class="cls-2" d="M219,178.18H197.26A1.17,1.17,0,0,1,196,177v-4.49h18.89c0-.28,0-3.85,0-4.13H196v-4.1a1.19,1.19,0,0,1,.32-.8,1.45,1.45,0,0,1,1.09-.39H219v-3.3a.87.87,0,0,0-.24-.66,1.23,1.23,0,0,0-.82-.27H187.67a.88.88,0,0,0-.92.92v17.84a4.77,4.77,0,0,0,4.85,4.79h26.54a.92.92,0,0,0,.62-.26.85.85,0,0,0,.28-.62S219,178.47,219,178.18Z"/><path class="cls-2" d="M212.27,150.34a6,6,0,0,0-3.21-.82,6,6,0,0,0-3.21.82c-.85.53-1.52,1.23-2.52,1.23s-1.6-.71-2.5-1.23a6.18,6.18,0,0,0-3.21-.82,6,6,0,0,0-3.21.82,2.11,2.11,0,0,0,0,3.92,6,6,0,0,0,3.21.81,6.1,6.1,0,0,0,3.14-.75c.8-.49,1.67-1.29,2.57-1.29a5.31,5.31,0,0,1,2.53,1.23,6.17,6.17,0,0,0,3.21.81,6,6,0,0,0,3.24-.81,2.11,2.11,0,0,0,0-3.92Z"/><path class="cls-1" d="M199.93,57.41C197.8,55.06,147.61,0,129.44,0S61.08,55.06,59,57.4h0c-.21.23-5.11,5.8-5.11,12.29,0,5.05.34,10.13.34,10.18,0,.23.13,2.38,1.33,3a1.41,1.41,0,0,0,.62.14,2.6,2.6,0,0,0,1.48-.59C58.16,81.92,109.29,37,129.44,37s71.28,44.88,71.8,45.34a2.65,2.65,0,0,0,1.51.61,1.42,1.42,0,0,0,.62-.14c1.2-.58,1.32-2.73,1.33-3,0,0,.34-5.12.34-10.17C205,63.2,200.14,57.64,199.93,57.41Zm.54,18.45c-13.2-11.24-52.41-43.25-71-43.25s-57.81,32-71,43.24c-.08-2.66-.15-4.27-.15-6.64a11.35,11.35,0,0,1,3.16-7.82A233,233,0,0,1,121,22.6c9-3.76,8.45-3.05,8.44-18.14a5,5,0,0,1,.65,0c12.6,1.13,46.5,33.82,66.55,55.92,0,0,4,4.55,4,9.31C200.61,71.92,200.54,74.12,200.47,75.85Z"/></g></g></svg>